<svg width="128" height="128" viewBox="0 0 128 128" fill="none" xmlns="http://www.w3.org/2000/svg">
<path d="M89.2339 5.856H81.8499L89.5289 14.189V18.156H73.7129V13.511H81.3909L73.7129 5.178V1.207H89.2339V5.856V5.856ZM70.577 5.856H63.1929L70.8719 14.189V18.156H55.0549V13.511H62.7339L55.0549 5.178V1.207H70.577V5.856V5.856ZM52.1029 6.046H44.1349V13.317H52.1029V18.156H38.4709V1.207H52.1029V6.046V6.046Z" fill="#131313"/>
<path d="M27.613 116.706L19.516 25.893H108.483L100.379 116.691L63.945 126.793L27.613 116.706V116.706Z" fill="#1572B6"/>
<path d="M64.001 119.072L93.44 110.91L100.366 33.319H64.001V119.072Z" fill="#33A9DC"/>
<path d="M64 66.22H78.738L79.757 54.815H64V43.677H91.929L91.662 46.665L88.925 77.357H64V66.22V66.22Z" fill="white"/>
<path d="M64.067 95.146L64.018 95.16L51.614 91.81L50.82 82.927H39.641L41.202 100.415L64.016 106.748L64.068 106.733V95.146H64.067Z" fill="#EBEBEB"/>
<path d="M77.792 76.886L76.45 91.802L64.028 95.155V106.743L86.861 100.415L87.029 98.533L88.967 76.886H77.792V76.886Z" fill="white"/>
<path d="M64.0389 43.677V54.814H37.1359L36.9119 52.311L36.4049 46.665L36.1379 43.677H64.0389ZM63.9999 66.221V77.359H51.7529L51.5299 74.856L51.0219 69.209L50.7549 66.221H63.9999V66.221Z" fill="#EBEBEB"/>
</svg>
