
<svg width="375" height="562" fill="none" xmlns="http://www.w3.org/2000/svg">
  <path fill-rule="evenodd" clip-rule="evenodd" d="M135.6 77.3c-1.6 16.5-.7 52.8 6.3 57.3l38-6.4v-.2A27 27 0 00200 97.3l-5-26a28.6 28.6 0 00-33.2-21.8l-2.6.4a27.5 27.5 0 00-23.6 27.4z" fill="#000"/>
  <path fill-rule="evenodd" clip-rule="evenodd" d="M177 90.9a29 29 0 004.1-22.6c-6.1-23.1-38.7-12.3-43 .6-4.3 12.9 2.2 42.7 11 43.3 3.6.3 10.3-3 16.8-8.5l1.4 32.2 27-4.6L177 91z" fill="#9C674B"/>
  <path fill-rule="evenodd" clip-rule="evenodd" d="M175 91.8c1.3 15 5 31.7 10.1 35l38-6.5c-4.4-35.1-22.4-18.2-28.6-51l-4.3-2.6-.1-1C181 54 171.5 49 161.4 50.9c-15.2 2.5-18.8 10-21.8 16.4 5 9.3 17 8.8 28.8 13.2 1-1.2 2.5-2 4.3-2.3 4-.7 7.7 1.8 8.5 5.6a7 7 0 01-6.3 8z" fill="#000"/>
  <g style="mix-blend-mode:luminosity" fill-rule="evenodd" clip-rule="evenodd">
    <path d="M208.4 261L152 421.2l-39.5 118.1H89.9L144.3 261h64.1z" fill="#1F28CF"/>
    <path d="M222.3 261c.7 55 .2 129 1.6 132.4 1 2.3 30.6 28.3 88.9 78.1l-11.6 21.2c-69.2-47.9-105.6-75-109.1-81.4-5.3-9.6-32-97.7-45.9-150.3h76.1z" fill="#2B44FF"/>
    <path d="M333.2 485.8l-19.6-16-15.8 20.2c-1.2 15.3-6 32.4-14.1 51.4l3.6 3.2 28.6-36.6 8-14.2 1.8 1.7 7.5-9.7z" fill="#191847"/>
    <path d="M114.6 562l-1.2-26.4H88.7C77.1 544.4 61.8 551.5 43 557v5h44.6l15.2-2.5v2.5h11.8z" fill="#121212"/>
  </g>
  <path fill-rule="evenodd" clip-rule="evenodd" d="M261.1 239.3l-27.4-5c7.4 54.6 11.4 83.6 12.2 87 1.7 7.7-6.8 17.3-10.6 22.6 8.3 5.4 9.9-8.8 20.3-1.7 9.4 6.4 15.7 16 28.9 11.4 1.6-.6 3.8-3.5.4-6.7-8.5-8-20.3-21.6-21.6-25.5-1.6-5.4-2.3-32.7-2.2-82zM71.8 106.5L38.1 68c-4.2-11-8.8-20.2-14-27.4-1.7-1.6-5.1-3.4-3.8 4 1.4 7.5 2.5 15.5.2 16.8-2.3 1.3-5.7-2.9-8.8-.4-2 1.7 4.2 7.6 18.5 17.8l20.9 39.8 20.7-12z" fill="#9C674B"/>
  <path fill-rule="evenodd" clip-rule="evenodd" d="M185.5 168.3l1.3-11.6C139.2 139.1 95.1 106.5 54.6 59l-41 39.3c56.7 46.8 114.2 74.6 172 70z" fill="#191847"/>
  <path fill-rule="evenodd" clip-rule="evenodd" d="M234.6 268.8H132c23.8-54.5 35.6-100.8 35.6-138.9l31-4.3c24.3 36.9 31.2 82.3 36 143.2z" fill="url(#paint0_linear)"/>
  <path fill-rule="evenodd" clip-rule="evenodd" d="M199.3 125.6h-2l-11.1.4-7.5 20.2c-.8 24.5-5.4 74-13.9 148.5h67.3l-.9 15.6h50c-7.4-79.6-34.8-141.2-82-184.7z" fill="#2F3676"/>
  <path fill-rule="evenodd" clip-rule="evenodd" d="M227.7 229c-2 32-6.8 54-14.4 66.2H232c.8-23-.7-45.1-4.4-66.3z" fill="#000" fill-opacity=".1"/>
  <path fill-rule="evenodd" clip-rule="evenodd" d="M217.1 256.3L184 241.7v14.6H217z" fill="#DFA6BA" fill-opacity=".6"/>
  <defs>
    <linearGradient id="paint0_linear" x1="183.3" y1="125.6" x2="183.3" y2="268.8" gradientUnits="userSpaceOnUse">
      <stop stop-color="#D2E94B"/>
      <stop offset="1" stop-color="#758049"/>
    </linearGradient>
  </defs>
</svg>