<svg width="128" height="128" viewBox="0 0 128 128" fill="none" xmlns="http://www.w3.org/2000/svg">
<path d="M124.737 58.378L69.6209 3.264C66.4489 0.0899992 61.3009 0.0899992 58.1239 3.264L46.6799 14.71L61.1979 29.228C64.5729 28.089 68.4409 28.853 71.1299 31.542C73.8329 34.248 74.5909 38.149 73.4239 41.535L87.4159 55.528C90.8009 54.361 94.7079 55.115 97.4099 57.823C101.19 61.6 101.19 67.723 97.4099 71.502C93.6299 75.282 87.5089 75.282 83.7269 71.502C80.8849 68.658 80.1819 64.483 81.6219 60.981L68.5739 47.933L68.5719 82.274C69.4939 82.729 70.3629 83.337 71.1309 84.102C74.9089 87.879 74.9089 94 71.1309 97.785C67.3519 101.562 61.2269 101.562 57.4519 97.785C53.6739 94.001 53.6739 87.88 57.4519 84.102C58.3859 83.169 59.4659 82.464 60.6189 81.992V47.333C59.4659 46.861 58.3879 46.161 57.4519 45.222C54.5899 42.362 53.9009 38.162 55.3689 34.646L41.0559 20.333L3.26394 58.123C0.0889404 61.3 0.0889404 66.448 3.26394 69.623L58.3809 124.737C61.5549 127.911 66.7009 127.911 69.8799 124.737L124.738 69.879C127.912 66.703 127.912 61.552 124.737 58.378V58.378Z" fill="#F34F29"/>
</svg>
