<svg width="93" height="158" viewBox="0 0 93 158" fill="none" xmlns="http://www.w3.org/2000/svg">
<mask id="mask0" mask-type="alpha" maskUnits="userSpaceOnUse" x="0" y="0" width="93" height="158">
<path fill-rule="evenodd" clip-rule="evenodd" d="M2 27.1887L46.3801 2L91 27.6685V61.973L61.2534 79.0054L91 96.0377V147.375L76.1267 156.011L61.2534 147.375V113.31L31.7466 96.0377V147.375L16.6334 155.771L2 147.375V27.1887ZM52.1375 22.3908L47.7276 11.5138L45.8862 8.75172L40.669 22.2552L41.8221 21.6712L46.3801 19.0323L52.1375 22.3908ZM84.5229 57.8949L68.69 57.655L76.1267 53.3369V45.9003L84.5229 57.8949Z" fill="#9B9191"/>
<path d="M46.3801 2L2 27.1887V147.375L16.6334 155.771L31.7466 147.375V96.0377L61.2534 113.31V147.375L76.1267 156.011L91 147.375V96.0377L61.2534 79.0054L91 61.973M46.3801 2L91 27.6685V61.973M46.3801 2L45.8862 8.75172M91 61.973L84.5229 57.8949M45.8862 8.75172L47.7276 11.5138L52.1375 22.3908L46.3801 19.0323L41.8221 21.6712L40.669 22.2552L45.8862 8.75172ZM84.5229 57.8949L68.69 57.655L76.1267 53.3369V45.9003L84.5229 57.8949Z" stroke="black" stroke-width="3"/>
</mask>
<g mask="url(#mask0)">
<path d="M91 96.0378L76.1267 104.674V156.011L91 147.375V96.0378Z" stroke="#1C5EC1" stroke-width="3"/>
<path d="M76.1268 36.0647L91.0001 27.6685V61.973L61.2534 79.0054L46.3801 70.3693L76.1268 53.3369V36.0647Z" stroke="url(#paint0_linear)" stroke-width="3"/>
<path d="M76.1268 36.0647L91.0001 27.6685V61.973L61.2534 79.0054L46.3801 70.3693L76.1268 53.3369V36.0647Z" stroke="#1C5EC1" stroke-width="3"/>
<path d="M46.3802 36.0647V19.0323L16.6335 36.0647V155.771L31.7468 147.375V44.7008L46.3802 36.0647Z" stroke="url(#paint1_linear)" stroke-width="3"/>
<path d="M46.3802 36.0647V19.0323L16.6335 36.0647V155.771L31.7468 147.375V44.7008L46.3802 36.0647Z" stroke="#1C5EC1" stroke-width="3"/>
<path d="M61.973 44.9408L76.1266 53.3371L46.38 70.3694L90.9999 96.0379L76.1266 104.674L31.7466 78.7656V61.7333L61.973 44.9408Z" stroke="url(#paint2_linear)" stroke-width="3"/>
<path d="M61.973 44.9408L76.1266 53.3371L46.38 70.3694L90.9999 96.0379L76.1266 104.674L31.7466 78.7656V61.7333L61.973 44.9408Z" stroke="#F5D3F6" stroke-width="3"/>
<path d="M16.6334 36.0647L2 27.4286L46.3801 2L91 27.6685L76.1267 36.0647L46.3801 19.0323L16.6334 36.0647Z" stroke="url(#paint3_linear)" stroke-width="3"/>
<path d="M16.6334 36.0647L2 27.4286L46.3801 2L91 27.6685L76.1267 36.0647L46.3801 19.0323L16.6334 36.0647Z" stroke="#F9D4F6" stroke-width="3"/>
<path d="M31.7466 78.7654V96.0376L61.2533 113.31V147.375L76.1266 156.011V104.674L31.7466 78.7654Z" stroke="url(#paint4_linear)" stroke-width="3"/>
<path d="M76.1268 53.3369L46.3801 36.0647V19.0323L76.1268 36.0647V53.3369Z" stroke="url(#paint5_linear)" stroke-width="3"/>
<path d="M16.6334 35.5848L2 26.9487V147.375L16.6334 155.771V35.5848Z" stroke="url(#paint6_linear)" stroke-width="3"/>
<path d="M91 96.0378L76.1267 104.674V156.011L91 147.375V96.0378Z" stroke="#F38118" stroke-width="3"/>
<path d="M76.1268 36.0647L91.0001 27.6685V61.973L61.2534 79.0054L46.3801 70.3693L76.1268 53.3369V36.0647Z" stroke="#F38118" stroke-width="3"/>
<path d="M46.3802 36.0647V19.0323L16.6335 36.0647V155.771L31.7468 147.375V44.7008L46.3802 36.0647Z" stroke="#F38118" stroke-width="3"/>
<path d="M61.973 44.9408L76.1266 53.3371L46.38 70.3694L90.9999 96.0379L76.1266 104.674L31.7466 78.7656V61.7333L61.973 44.9408Z" stroke="black" stroke-width="3"/>
<path d="M61.973 44.9408L76.1266 53.3371L46.38 70.3694L90.9999 96.0379L76.1266 104.674L31.7466 78.7656V61.7333L61.973 44.9408Z" stroke="#C4E330" stroke-width="3"/>
<path d="M16.6334 36.0647L2 27.4286L46.3801 2L91 27.6685L76.1267 36.0647L46.3801 19.0323L16.6334 36.0647Z" stroke="black" stroke-width="3"/>
<path d="M16.6334 36.0647L2 27.4286L46.3801 2L91 27.6685L76.1267 36.0647L46.3801 19.0323L16.6334 36.0647Z" stroke="#C4E330" stroke-width="3"/>
<path d="M31.7466 78.7654V96.0376L61.2533 113.31V147.375L76.1266 156.011V104.674L31.7466 78.7654Z" stroke="#E4A1EF" stroke-width="3"/>
<path d="M76.1268 53.3369L46.3801 36.0647V19.0323L76.1268 36.0647V53.3369Z" stroke="#E4A1EF" stroke-width="3"/>
<path d="M16.6334 36.0646L2 27.4285V147.375L16.6334 155.771V36.0646Z" stroke="#E4A1EF" stroke-width="3"/>
</g>
<defs>
<linearGradient id="paint0_linear" x1="68.6901" y1="27.6685" x2="68.6901" y2="79.0054" gradientUnits="userSpaceOnUse">
<stop stop-color="#EDBEE8"/>
<stop offset="1" stop-color="#9BACD9"/>
</linearGradient>
<linearGradient id="paint1_linear" x1="31.5069" y1="19.0323" x2="31.5069" y2="155.771" gradientUnits="userSpaceOnUse">
<stop stop-color="#EDBEE8"/>
<stop offset="1" stop-color="#9BACD9"/>
</linearGradient>
<linearGradient id="paint2_linear" x1="39.2531" y1="95.8402" x2="87.6573" y2="96.1435" gradientUnits="userSpaceOnUse">
<stop stop-color="#9BD9BF"/>
<stop offset="1" stop-color="#6CC4DF"/>
</linearGradient>
<linearGradient id="paint3_linear" x1="13.2749" y1="31.027" x2="85.9623" y2="32.2264" gradientUnits="userSpaceOnUse">
<stop stop-color="#9BD9BF"/>
<stop offset="1" stop-color="#6CC4DF"/>
</linearGradient>
<linearGradient id="paint4_linear" x1="53.9366" y1="78.7654" x2="53.9366" y2="156.011" gradientUnits="userSpaceOnUse">
<stop stop-color="#CCE62E"/>
<stop offset="1" stop-color="#C4E330"/>
</linearGradient>
<linearGradient id="paint5_linear" x1="61.2534" y1="19.0323" x2="61.2534" y2="53.3369" gradientUnits="userSpaceOnUse">
<stop stop-color="#CCE62E"/>
<stop offset="1" stop-color="#C4E330"/>
</linearGradient>
<linearGradient id="paint6_linear" x1="9.31671" y1="26.9487" x2="9.31671" y2="155.771" gradientUnits="userSpaceOnUse">
<stop stop-color="#CCE62E"/>
<stop offset="1" stop-color="#C4E330"/>
</linearGradient>
</defs>
</svg>
